<svg id="Слой_1" data-name="Слой 1" xmlns="http://www.w3.org/2000/svg" viewBox="0 0 1348.86 1692.51"><defs><style>.cls-1{fill:#fe6e5c;}</style></defs><path class="cls-1" d="M1330.33,1612.44c-91.95,130.21-474.1,98.81-589-81-81.43-127.42-4.38-291.36-92-341-77.21-43.74-175.18,61.9-249,11-48.9-33.72-51.13-111.24-54-211-5-174,46.47-242.07,0-302-33.16-42.76-71.39-23.61-145-60-112.59-55.66-210.88-193.25-200-313,16.23-178.78,271.46-270.46,302-281,368.44-127.25,896.39,120.75,989,454,59.18,213-105.85,293.86-65,637C1261.52,1412.73,1396.56,1518.63,1330.33,1612.44Z"/></svg>